<svg width="31" height="36" viewBox="0 0 31 36" fill="none" xmlns="http://www.w3.org/2000/svg">
<path d="M15.4688 28.125C20.7804 28.125 25.3125 23.2426 25.3125 16.875V15.4688H22.5V16.875C22.5 21.5274 19.3459 25.3125 15.4688 25.3125C11.5917 25.3125 8.4375 21.5274 8.4375 16.875V15.4688H5.625V16.875C5.625 23.2668 10.1767 28.125 15.4688 28.125ZM25.2116 8.4375C24.5272 3.67348 20.4192 0 15.4688 0C10.5183 0 6.41032 3.67348 5.7259 8.4375H0V31.7812C0 34.1075 1.89253 36 4.21875 36H26.7188C29.045 36 30.9375 34.1075 30.9375 31.7812V8.4375H25.2116ZM15.4688 2.8125C18.8644 2.8125 21.7053 5.23202 22.3586 8.4375H8.5789C9.23217 5.23202 12.0731 2.8125 15.4688 2.8125ZM28.125 31.7812C28.125 32.5567 27.4942 33.1875 26.7188 33.1875H4.21875C3.44334 33.1875 2.8125 32.5567 2.8125 31.7812V11.25H28.125V31.7812Z" fill="#BD844C"/>
</svg>
