<svg width="194" height="50" viewBox="0 0 194 50" fill="none" xmlns="http://www.w3.org/2000/svg">
<path d="M61.3945 40.44C59.1445 40.44 57.1794 39.99 55.4994 39.09C53.8194 38.19 52.5144 36.945 51.5844 35.355C50.6844 33.735 50.2344 31.83 50.2344 29.64C50.2344 27.42 50.6844 25.515 51.5844 23.925C52.5144 22.305 53.8194 21.06 55.4994 20.19C57.1794 19.29 59.1595 18.84 61.4395 18.84C63.7195 18.84 65.6545 19.26 67.2445 20.1C68.8645 20.91 70.0946 22.11 70.9346 23.7C71.7746 25.26 72.1946 27.15 72.1946 29.37C72.1946 29.64 72.1796 29.925 72.1496 30.225C72.1496 30.525 72.1346 30.765 72.1046 30.945H53.5644V27.345H67.0195L65.4445 29.415C65.5645 29.235 65.6695 28.995 65.7595 28.695C65.8795 28.365 65.9395 28.095 65.9395 27.885C65.9395 26.865 65.7445 25.995 65.3545 25.275C64.9945 24.555 64.4695 23.985 63.7795 23.565C63.0895 23.145 62.2795 22.935 61.3495 22.935C60.2095 22.935 59.2495 23.19 58.4694 23.7C57.7194 24.18 57.1344 24.915 56.7144 25.905C56.3244 26.865 56.1144 28.065 56.0844 29.505C56.0844 30.885 56.2794 32.055 56.6694 33.015C57.0894 33.975 57.7044 34.71 58.5144 35.22C59.3245 35.73 60.2995 35.985 61.4395 35.985C62.7295 35.985 63.8245 35.745 64.7245 35.265C65.6545 34.755 66.4195 34.005 67.0195 33.015L72.1046 34.59C71.0246 36.54 69.5845 38.01 67.7845 39C66.0145 39.96 63.8845 40.44 61.3945 40.44Z" fill="#010F1C"/>
<path d="M79.6506 29.64C79.6506 30.84 79.9206 31.89 80.4606 32.79C81.0006 33.69 81.7206 34.395 82.6206 34.905C83.5506 35.415 84.5706 35.67 85.6806 35.67C86.5806 35.67 87.4506 35.535 88.2906 35.265C89.1307 34.965 89.8807 34.575 90.5407 34.095C91.2307 33.585 91.7557 33 92.1157 32.34V38.325C91.3957 38.985 90.4507 39.51 89.2807 39.9C88.1406 40.26 86.8056 40.44 85.2756 40.44C83.0856 40.44 81.1056 39.99 79.3356 39.09C77.5956 38.19 76.2155 36.93 75.1955 35.31C74.2055 33.66 73.7105 31.77 73.7105 29.64C73.7105 27.48 74.2055 25.59 75.1955 23.97C76.2155 22.35 77.5956 21.09 79.3356 20.19C81.1056 19.29 83.0856 18.84 85.2756 18.84C86.8056 18.84 88.1406 19.035 89.2807 19.425C90.4507 19.785 91.3957 20.28 92.1157 20.91V26.895C91.7557 26.235 91.2157 25.665 90.4957 25.185C89.8057 24.675 89.0407 24.285 88.2006 24.015C87.3606 23.745 86.5206 23.61 85.6806 23.61C84.5706 23.61 83.5506 23.88 82.6206 24.42C81.7206 24.93 81.0006 25.635 80.4606 26.535C79.9206 27.435 79.6506 28.47 79.6506 29.64Z" fill="#010F1C"/>
<path d="M94.5123 29.64C94.5123 27.48 95.0073 25.59 95.9973 23.97C97.0173 22.35 98.3823 21.09 100.092 20.19C101.832 19.29 103.797 18.84 105.987 18.84C108.177 18.84 110.127 19.29 111.837 20.19C113.577 21.09 114.942 22.35 115.932 23.97C116.953 25.59 117.463 27.48 117.463 29.64C117.463 31.77 116.953 33.66 115.932 35.31C114.942 36.93 113.577 38.19 111.837 39.09C110.127 39.99 108.177 40.44 105.987 40.44C103.797 40.44 101.832 39.99 100.092 39.09C98.3823 38.19 97.0173 36.93 95.9973 35.31C95.0073 33.66 94.5123 31.77 94.5123 29.64ZM100.452 29.64C100.452 30.81 100.692 31.845 101.172 32.745C101.682 33.615 102.357 34.305 103.197 34.815C104.037 35.295 104.967 35.535 105.987 35.535C107.007 35.535 107.937 35.295 108.777 34.815C109.617 34.305 110.277 33.615 110.757 32.745C111.267 31.845 111.522 30.81 111.522 29.64C111.522 28.47 111.267 27.435 110.757 26.535C110.277 25.635 109.617 24.945 108.777 24.465C107.937 23.985 107.007 23.745 105.987 23.745C104.967 23.745 104.037 23.985 103.197 24.465C102.357 24.945 101.682 25.635 101.172 26.535C100.692 27.435 100.452 28.47 100.452 29.64Z" fill="white"/>
<path d="M151.086 26.76V39.99H145.235V27.39C145.235 25.98 144.995 24.93 144.515 24.24C144.035 23.52 143.255 23.16 142.175 23.16C141.455 23.16 140.825 23.325 140.285 23.655C139.745 23.955 139.325 24.435 139.025 25.095C138.725 25.725 138.575 26.49 138.575 27.39V39.99H132.77V27.39C132.77 25.98 132.53 24.93 132.05 24.24C131.57 23.52 130.79 23.16 129.71 23.16C128.99 23.16 128.36 23.325 127.82 23.655C127.28 23.955 126.86 24.435 126.56 25.095C126.26 25.725 126.11 26.49 126.11 27.39V39.99H120.485V19.29H126.11V22.35C126.71 21.21 127.505 20.34 128.495 19.74C129.485 19.14 130.67 18.84 132.05 18.84C133.58 18.84 134.84 19.14 135.83 19.74C136.82 20.34 137.54 21.225 137.99 22.395C138.74 21.225 139.655 20.34 140.735 19.74C141.845 19.14 143.105 18.84 144.515 18.84C146.045 18.84 147.291 19.155 148.251 19.785C149.211 20.385 149.916 21.285 150.366 22.485C150.846 23.655 151.086 25.08 151.086 26.76Z" fill="#010F1C"/>
<path d="M159.618 33.555C159.618 34.155 159.768 34.68 160.068 35.13C160.368 35.55 160.773 35.88 161.283 36.12C161.823 36.33 162.408 36.435 163.038 36.435C163.938 36.435 164.748 36.255 165.468 35.895C166.188 35.505 166.773 34.965 167.223 34.275C167.673 33.555 167.898 32.7 167.898 31.71L168.618 34.41C168.618 35.73 168.243 36.84 167.493 37.74C166.773 38.64 165.828 39.315 164.658 39.765C163.518 40.215 162.318 40.44 161.058 40.44C159.768 40.44 158.568 40.185 157.458 39.675C156.348 39.165 155.448 38.43 154.758 37.47C154.098 36.48 153.768 35.28 153.768 33.87C153.768 31.86 154.473 30.27 155.883 29.1C157.293 27.93 159.288 27.345 161.868 27.345C163.188 27.345 164.343 27.48 165.333 27.75C166.353 28.02 167.208 28.35 167.898 28.74C168.588 29.13 169.083 29.505 169.383 29.865V32.565C168.573 31.965 167.658 31.515 166.638 31.215C165.648 30.915 164.598 30.765 163.488 30.765C162.588 30.765 161.853 30.885 161.283 31.125C160.713 31.335 160.293 31.65 160.023 32.07C159.753 32.46 159.618 32.955 159.618 33.555ZM157.368 25.14L155.208 21.18C156.288 20.61 157.608 20.07 159.168 19.56C160.728 19.02 162.468 18.75 164.388 18.75C166.158 18.75 167.733 19.005 169.113 19.515C170.493 20.025 171.573 20.775 172.354 21.765C173.134 22.725 173.524 23.91 173.524 25.32V39.99H167.898V26.535C167.898 25.965 167.808 25.485 167.628 25.095C167.448 24.675 167.163 24.33 166.773 24.06C166.413 23.79 165.978 23.595 165.468 23.475C164.958 23.355 164.388 23.295 163.758 23.295C162.798 23.295 161.883 23.4 161.013 23.61C160.143 23.82 159.393 24.075 158.763 24.375C158.133 24.675 157.668 24.93 157.368 25.14Z" fill="#010F1C"/>
<path d="M178.63 32.835C179.5 33.645 180.31 34.305 181.06 34.815C181.81 35.295 182.515 35.655 183.175 35.895C183.865 36.135 184.51 36.255 185.11 36.255C185.89 36.255 186.49 36.09 186.91 35.76C187.33 35.4 187.54 34.92 187.54 34.32C187.54 33.78 187.36 33.33 187 32.97C186.67 32.58 186.175 32.235 185.515 31.935C184.855 31.635 184.015 31.32 182.995 30.99C182.035 30.63 181.105 30.21 180.205 29.73C179.305 29.22 178.555 28.56 177.955 27.75C177.385 26.91 177.1 25.845 177.1 24.555C177.1 23.325 177.43 22.29 178.09 21.45C178.75 20.58 179.635 19.935 180.745 19.515C181.885 19.065 183.145 18.84 184.525 18.84C185.695 18.84 186.79 18.99 187.81 19.29C188.83 19.59 189.775 19.995 190.645 20.505C191.515 20.985 192.28 21.555 192.94 22.215L190.375 25.815C189.625 25.005 188.725 24.345 187.675 23.835C186.655 23.325 185.65 23.07 184.66 23.07C184 23.07 183.475 23.205 183.085 23.475C182.725 23.715 182.545 24.09 182.545 24.6C182.545 25.05 182.725 25.455 183.085 25.815C183.475 26.145 184.015 26.445 184.705 26.715C185.425 26.985 186.235 27.315 187.135 27.705C188.245 28.125 189.265 28.605 190.195 29.145C191.155 29.655 191.92 30.3 192.49 31.08C193.06 31.86 193.345 32.88 193.345 34.14C193.345 36.21 192.67 37.83 191.32 39C189.97 40.14 188.11 40.71 185.74 40.71C184.27 40.71 182.92 40.515 181.69 40.125C180.49 39.735 179.395 39.225 178.405 38.595C177.445 37.935 176.575 37.23 175.795 36.48L178.63 32.835Z" fill="#010F1C"/>
<path d="M21.4846 39.0625C28.8619 39.0625 35.1566 32.2813 35.1566 23.4375V21.4844H31.2503V23.4375C31.2503 29.8992 26.8695 35.1562 21.4846 35.1562C16.0997 35.1562 11.7189 29.8992 11.7189 23.4375V21.4844H7.81257V23.4375C7.81257 32.3149 14.1344 39.0625 21.4846 39.0625ZM35.0164 11.7188C34.0658 5.10205 28.3602 0 21.4846 0C14.6089 0 8.9033 5.10205 7.95271 11.7188H0V44.1406C0 47.3715 2.62854 50 5.85943 50H37.1097C40.3406 50 42.9691 47.3715 42.9691 44.1406V11.7188H35.0164ZM21.4846 3.90625C26.2007 3.90625 30.1466 7.2667 31.0539 11.7188H11.9152C12.8226 7.2667 16.7684 3.90625 21.4846 3.90625ZM39.0628 44.1406C39.0628 45.2176 38.1867 46.0938 37.1097 46.0938H5.85943C4.78246 46.0938 3.90628 45.2176 3.90628 44.1406V15.625H39.0628V44.1406Z" fill="white"/>
</svg>
