<svg width="140" height="36" viewBox="0 0 140 36" fill="none" xmlns="http://www.w3.org/2000/svg">
<path d="M44.2044 29.1168C42.5844 29.1168 41.1696 28.7928 39.96 28.1448C38.7504 27.4968 37.8108 26.6004 37.1412 25.4556C36.4932 24.2892 36.1692 22.9176 36.1692 21.3408C36.1692 19.7424 36.4932 18.3708 37.1412 17.226C37.8108 16.0596 38.7504 15.1632 39.96 14.5368C41.1696 13.8888 42.5952 13.5648 44.2368 13.5648C45.8784 13.5648 47.2716 13.8672 48.4164 14.472C49.5828 15.0552 50.4684 15.9192 51.0732 17.064C51.678 18.1872 51.9804 19.548 51.9804 21.1464C51.9804 21.3408 51.9696 21.546 51.948 21.762C51.948 21.978 51.9372 22.1508 51.9156 22.2804H38.5668V19.6884H48.2544L47.1204 21.1788C47.2068 21.0492 47.2824 20.8764 47.3472 20.6604C47.4336 20.4228 47.4768 20.2284 47.4768 20.0772C47.4768 19.3428 47.3364 18.7164 47.0556 18.198C46.7964 17.6796 46.4184 17.2692 45.9216 16.9668C45.4248 16.6644 44.8416 16.5132 44.172 16.5132C43.3512 16.5132 42.66 16.6968 42.0984 17.064C41.5584 17.4096 41.1372 17.9388 40.8348 18.6516C40.554 19.3428 40.4028 20.2068 40.3812 21.2436C40.3812 22.2372 40.5216 23.0796 40.8024 23.7708C41.1048 24.462 41.5476 24.9912 42.1308 25.3584C42.714 25.7256 43.416 25.9092 44.2368 25.9092C45.1656 25.9092 45.954 25.7364 46.602 25.3908C47.2716 25.0236 47.8224 24.4836 48.2544 23.7708L51.9156 24.9048C51.138 26.3088 50.1012 27.3672 48.8052 28.08C47.5308 28.7712 45.9972 29.1168 44.2044 29.1168Z" fill="white"/>
<path d="M57.3487 21.3408C57.3487 22.2048 57.5431 22.9608 57.9319 23.6088C58.3207 24.2568 58.8391 24.7644 59.4871 25.1316C60.1567 25.4988 60.8911 25.6824 61.6903 25.6824C62.3383 25.6824 62.9647 25.5852 63.5695 25.3908C64.1743 25.1748 64.7143 24.894 65.1895 24.5484C65.6863 24.1812 66.0643 23.76 66.3235 23.2848V27.594C65.8051 28.0692 65.1247 28.4472 64.2823 28.728C63.4615 28.9872 62.5003 29.1168 61.3987 29.1168C59.8219 29.1168 58.3963 28.7928 57.1219 28.1448C55.8691 27.4968 54.8755 26.5896 54.1411 25.4232C53.4283 24.2352 53.0719 22.8744 53.0719 21.3408C53.0719 19.7856 53.4283 18.4248 54.1411 17.2584C54.8755 16.092 55.8691 15.1848 57.1219 14.5368C58.3963 13.8888 59.8219 13.5648 61.3987 13.5648C62.5003 13.5648 63.4615 13.7052 64.2823 13.986C65.1247 14.2452 65.8051 14.6016 66.3235 15.0552V19.3644C66.0643 18.8892 65.6755 18.4788 65.1571 18.1332C64.6603 17.766 64.1095 17.4852 63.5047 17.2908C62.8999 17.0964 62.2951 16.9992 61.6903 16.9992C60.8911 16.9992 60.1567 17.1936 59.4871 17.5824C58.8391 17.9496 58.3207 18.4572 57.9319 19.1052C57.5431 19.7532 57.3487 20.4984 57.3487 21.3408Z" fill="white"/>
<path d="M68.049 21.3408C68.049 19.7856 68.4054 18.4248 69.1182 17.2584C69.8526 16.092 70.8354 15.1848 72.0666 14.5368C73.3194 13.8888 74.7342 13.5648 76.311 13.5648C77.8878 13.5648 79.2918 13.8888 80.523 14.5368C81.7758 15.1848 82.7586 16.092 83.4714 17.2584C84.2058 18.4248 84.573 19.7856 84.573 21.3408C84.573 22.8744 84.2058 24.2352 83.4714 25.4232C82.7586 26.5896 81.7758 27.4968 80.523 28.1448C79.2918 28.7928 77.8878 29.1168 76.311 29.1168C74.7342 29.1168 73.3194 28.7928 72.0666 28.1448C70.8354 27.4968 69.8526 26.5896 69.1182 25.4232C68.4054 24.2352 68.049 22.8744 68.049 21.3408ZM72.3258 21.3408C72.3258 22.1832 72.4986 22.9284 72.8442 23.5764C73.2114 24.2028 73.6974 24.6996 74.3022 25.0668C74.907 25.4124 75.5766 25.5852 76.311 25.5852C77.0454 25.5852 77.715 25.4124 78.3198 25.0668C78.9246 24.6996 79.3998 24.2028 79.7454 23.5764C80.1126 22.9284 80.2962 22.1832 80.2962 21.3408C80.2962 20.4984 80.1126 19.7532 79.7454 19.1052C79.3998 18.4572 78.9246 17.9604 78.3198 17.6148C77.715 17.2692 77.0454 17.0964 76.311 17.0964C75.5766 17.0964 74.907 17.2692 74.3022 17.6148C73.6974 17.9604 73.2114 18.4572 72.8442 19.1052C72.4986 19.7532 72.3258 20.4984 72.3258 21.3408Z" fill="white"/>
<path d="M108.781 19.2672V28.7928H104.569V19.7208C104.569 18.7056 104.397 17.9496 104.051 17.4528C103.705 16.9344 103.144 16.6752 102.366 16.6752C101.848 16.6752 101.394 16.794 101.005 17.0316C100.617 17.2476 100.314 17.5932 100.098 18.0684C99.8822 18.522 99.7742 19.0728 99.7742 19.7208V28.7928H95.5946V19.7208C95.5946 18.7056 95.4218 17.9496 95.0762 17.4528C94.7306 16.9344 94.169 16.6752 93.3914 16.6752C92.873 16.6752 92.4194 16.794 92.0306 17.0316C91.6418 17.2476 91.3394 17.5932 91.1234 18.0684C90.9074 18.522 90.7994 19.0728 90.7994 19.7208V28.7928H86.7494V13.8888H90.7994V16.092C91.2314 15.2712 91.8038 14.6448 92.5166 14.2128C93.2294 13.7808 94.0826 13.5648 95.0762 13.5648C96.1778 13.5648 97.085 13.7808 97.7978 14.2128C98.5106 14.6448 99.029 15.282 99.353 16.1244C99.893 15.282 100.552 14.6448 101.329 14.2128C102.129 13.7808 103.036 13.5648 104.051 13.5648C105.153 13.5648 106.049 13.7916 106.74 14.2452C107.431 14.6772 107.939 15.3252 108.263 16.1892C108.609 17.0316 108.781 18.0576 108.781 19.2672Z" fill="white"/>
<path d="M114.925 24.1596C114.925 24.5916 115.033 24.9696 115.249 25.2936C115.465 25.596 115.757 25.8336 116.124 26.0064C116.513 26.1576 116.934 26.2332 117.387 26.2332C118.035 26.2332 118.619 26.1036 119.137 25.8444C119.655 25.5636 120.077 25.1748 120.401 24.678C120.725 24.1596 120.887 23.544 120.887 22.8312L121.405 24.7752C121.405 25.7256 121.135 26.5248 120.595 27.1728C120.077 27.8208 119.396 28.3068 118.554 28.6308C117.733 28.9548 116.869 29.1168 115.962 29.1168C115.033 29.1168 114.169 28.9332 113.37 28.566C112.571 28.1988 111.923 27.6696 111.426 26.9784C110.951 26.2656 110.713 25.4016 110.713 24.3864C110.713 22.9392 111.221 21.7944 112.236 20.952C113.251 20.1096 114.687 19.6884 116.545 19.6884C117.495 19.6884 118.327 19.7856 119.04 19.98C119.774 20.1744 120.39 20.412 120.887 20.6928C121.383 20.9736 121.74 21.2436 121.956 21.5028V23.4468C121.373 23.0148 120.714 22.6908 119.979 22.4748C119.267 22.2588 118.511 22.1508 117.711 22.1508C117.063 22.1508 116.534 22.2372 116.124 22.41C115.713 22.5612 115.411 22.788 115.217 23.0904C115.022 23.3712 114.925 23.7276 114.925 24.1596ZM113.305 18.1008L111.75 15.2496C112.527 14.8392 113.478 14.4504 114.601 14.0832C115.724 13.6944 116.977 13.5 118.359 13.5C119.634 13.5 120.768 13.6836 121.761 14.0508C122.755 14.418 123.533 14.958 124.094 15.6708C124.656 16.362 124.937 17.2152 124.937 18.2304V28.7928H120.887V19.1052C120.887 18.6948 120.822 18.3492 120.692 18.0684C120.563 17.766 120.357 17.5176 120.077 17.3232C119.817 17.1288 119.504 16.9884 119.137 16.902C118.77 16.8156 118.359 16.7724 117.906 16.7724C117.215 16.7724 116.556 16.848 115.929 16.9992C115.303 17.1504 114.763 17.334 114.309 17.55C113.856 17.766 113.521 17.9496 113.305 18.1008Z" fill="white"/>
<path d="M128.613 23.6412C129.24 24.2244 129.823 24.6996 130.363 25.0668C130.903 25.4124 131.411 25.6716 131.886 25.8444C132.383 26.0172 132.847 26.1036 133.279 26.1036C133.841 26.1036 134.273 25.9848 134.575 25.7472C134.877 25.488 135.029 25.1424 135.029 24.7104C135.029 24.3216 134.899 23.9976 134.64 23.7384C134.402 23.4576 134.046 23.2092 133.571 22.9932C133.095 22.7772 132.491 22.5504 131.756 22.3128C131.065 22.0536 130.395 21.7512 129.747 21.4056C129.099 21.0384 128.559 20.5632 128.127 19.98C127.717 19.3752 127.512 18.6084 127.512 17.6796C127.512 16.794 127.749 16.0488 128.225 15.444C128.7 14.8176 129.337 14.3532 130.136 14.0508C130.957 13.7268 131.864 13.5648 132.858 13.5648C133.7 13.5648 134.489 13.6728 135.223 13.8888C135.957 14.1048 136.638 14.3964 137.264 14.7636C137.891 15.1092 138.441 15.5196 138.917 15.9948L137.07 18.5868C136.53 18.0036 135.882 17.5284 135.126 17.1612C134.391 16.794 133.668 16.6104 132.955 16.6104C132.48 16.6104 132.102 16.7076 131.821 16.902C131.562 17.0748 131.432 17.3448 131.432 17.712C131.432 18.036 131.562 18.3276 131.821 18.5868C132.102 18.8244 132.491 19.0404 132.987 19.2348C133.506 19.4292 134.089 19.6668 134.737 19.9476C135.536 20.25 136.271 20.5956 136.94 20.9844C137.631 21.3516 138.182 21.816 138.593 22.3776C139.003 22.9392 139.208 23.6736 139.208 24.5808C139.208 26.0712 138.722 27.2376 137.75 28.08C136.778 28.9008 135.439 29.3112 133.733 29.3112C132.674 29.3112 131.702 29.1708 130.817 28.89C129.953 28.6092 129.164 28.242 128.451 27.7884C127.76 27.3132 127.134 26.8056 126.572 26.2656L128.613 23.6412Z" fill="white"/>
<path d="M15.4688 28.125C20.7804 28.125 25.3125 23.2426 25.3125 16.875V15.4688H22.5V16.875C22.5 21.5274 19.3459 25.3125 15.4688 25.3125C11.5917 25.3125 8.4375 21.5274 8.4375 16.875V15.4688H5.625V16.875C5.625 23.2668 10.1767 28.125 15.4688 28.125ZM25.2116 8.4375C24.5272 3.67348 20.4192 0 15.4688 0C10.5183 0 6.41032 3.67348 5.7259 8.4375H0V31.7812C0 34.1075 1.89253 36 4.21875 36H26.7188C29.045 36 30.9375 34.1075 30.9375 31.7812V8.4375H25.2116ZM15.4688 2.8125C18.8644 2.8125 21.7053 5.23202 22.3586 8.4375H8.5789C9.23217 5.23202 12.0731 2.8125 15.4688 2.8125ZM28.125 31.7812C28.125 32.5567 27.4942 33.1875 26.7188 33.1875H4.21875C3.44334 33.1875 2.8125 32.5567 2.8125 31.7812V11.25H28.125V31.7812Z" fill="white"/>
</svg>
